<?xml version="1.0" encoding="utf-8"?>
<!-- Generator: Adobe Illustrator 26.1.0, SVG Export Plug-In . SVG Version: 6.00 Build 0)  -->
<svg version="1.1" id="Layer_1" xmlns:serif="http://www.serif.com/"
	 xmlns="http://www.w3.org/2000/svg" xmlns:xlink="http://www.w3.org/1999/xlink" x="0px" y="0px" viewBox="0 0 841.9 282.3"
	 style="enable-background:new 0 0 841.9 282.3;" xml:space="preserve">
<style type="text/css">
	.st0{fill-rule:evenodd;clip-rule:evenodd;fill:#C79738;}
</style>
<g transform="matrix(1,0,0,1,98.2614,-57.072)">
	<g transform="matrix(0.421289,0,0,0.400474,1021.18,693.731)">
		<path class="st0" d="M-1240.2-1290.2l-20.7,5.4v375h20.7V-1290.2z"/>
	</g>
	<g transform="matrix(0.408063,0,0,0.400474,1038.82,693.731)">
		<path class="st0" d="M-1113.8-1290.1l-21.3,5.3V-910h21.3c0,0,0.5-176.8,0-228.5c-0.3-27.1-3.2-81.4-3.2-81.4l72.8,312.8l21.1-5.3
			l-0.1-377.9l-21.6,5.4c0,0-0.3,151.9,0.4,202.8c0.4,34.3,3.2,102.9,3.2,102.9L-1113.8-1290.1z"/>
	</g>
	<g transform="matrix(0.400474,0,0,0.400474,-2.10933,714.28)">
		<path class="st0" d="M-235.6-1030.8c0.1-13.4-2.1-239.9,0.3-260.4c1.7-14.8,8-34.3,17-41.5c6.6-5.3,17.4-13,38.3-13.6
			c23-0.8,39.9,5.9,47.7,21.7c2.8,5.7,5,15.4,5.1,28.8c0.5,54,0.1,269.3-0.1,276.7c-0.6,17.5-4.6,35.6-17.4,49
			c-15.2,15.9-53.1,20.4-74.8,6c-6.3-4.1-11.6-11.3-14.7-25.1C-237.6-1003.6-235.7-1023.3-235.6-1030.8z M-214.2-1009.6
			c0.1-12-1.5-248.7-0.1-266.9c1-13.2,1.9-27.5,9.4-36.8c4.2-5.4,10.7-11.4,23.3-12.1c13.9-0.6,23.7-0.9,30.6,13.5
			c2.3,4.8,1.8,19.3,1.9,31.2c0.3,48.3,0.1,241.1-0.1,247.8c-0.4,15.7-0.4,31-8.9,43.7c-9.4,14.1-36,18.5-49.4,5.9
			C-214.8-990.1-214.4-1002.8-214.2-1009.6z"/>
	</g>
	<g transform="matrix(0.400474,0,0,0.400474,-2.10933,714.28)">
		<path class="st0" d="M149.9-1336.1l21.6-5c0,0,0.3,31.9,0.4,45.4c0.5,54,0.1,269.3-0.1,276.7c-0.6,17.5-4.6,35.6-17.4,49
			c-15.2,15.9-53.1,20.4-74.8,6c-6.3-4.1-11.6-11.3-14.7-25.1c-3.3-14.5-1.4-34.3-1.3-41.9c0.1-13.4-0.6-305.1-0.6-305.1
			s20.2-5.1,21.5-6l-0.1,99.1l0,0c-0.3,70.3,0.8,223.7,0.6,233.4c0,6.8-0.5,19.4,6.7,26.4c13.4,12.6,40,8.1,49.4-5.9
			c8.5-12.7,8.5-28,8.9-43.7c0.1-5.5,0.3-138.2,0.3-211.4L149.9-1336.1z"/>
	</g>
	<g transform="matrix(0.389724,0,0,0.401918,19.7336,713.531)">
		<path class="st0" d="M339.3-1312.4c0,0,26-10,42.7-6c20.7,5,21.3,22.1,21.3,22.1l-0.1,97.7c0,0-0.3,22.1-11.7,34.2
			c-8.2,8.7-17.1,8.7-17.1,8.7l-10.4,0.5l-3,8.4l52.5,196.9l20.1-10.8l-47.1-176.4c0,0,10.2-1.2,21.6-12.1
			c15.2-14.7,17.1-41.9,17.2-49.8c0.4-26.6,0.4-77.9,0.3-96.3c0-5.5-2.4-13.6-2.4-13.6s-4-33-55.5-31.1
			c-21.7,0.8-50.4,10.4-50.4,10.4l-0.5,373.9H339L339.3-1312.4z"/>
	</g>
	<g transform="matrix(0.400474,0,0,0.400474,955.223,713.602)">
		<path class="st0" d="M-1732.7-1029.8c0.1-13.4-2.1-239.9,0.3-260.4c1.7-14.8,8-34.3,17-41.5c6.6-5.3,17.4-13,38.3-13.6
			c23-0.8,39.9,5.9,47.7,21.7c2.8,5.7,5,15.4,5.1,28.8c0.5,54,0.1,269.3-0.1,276.7c-0.6,17.5-4.6,35.6-17.4,49
			c-15.2,15.9-53.1,20.4-74.8,6c-6.3-4.1-11.6-11.3-14.7-25.1C-1734.7-1002.5-1732.8-1022.2-1732.7-1029.8z M-1711.3-1008.6
			c0.1-12-1.5-248.7-0.1-266.9c1-13.2,1.9-27.5,9.4-36.8c4.2-5.4,10.7-11.4,23.3-12.1c13.9-0.6,23.7-0.9,30.6,13.5
			c2.3,4.8,1.8,19.3,1.9,31.2c0.3,48.3,0.1,241.1-0.1,247.8c-0.4,15.7-0.4,31-8.9,43.7c-9.4,14.1-36,18.5-49.4,5.9
			C-1711.9-989-1711.3-1001.7-1711.3-1008.6z"/>
	</g>
	<g transform="matrix(0.400474,0,0,0.400474,2123.6,713.206)">
		<path class="st0" d="M-3559.8-1029.2c0.1-13.4-2.1-239.9,0.3-260.4c1.7-14.8,8-34.3,17-41.5c6.6-5.3,17.4-13,38.3-13.6
			c23-0.8,39.9,5.9,47.7,21.7c2.8,5.7,5,15.4,5.1,28.8c0.5,54,0.1,269.3-0.1,276.7c-0.6,17.5-4.6,35.6-17.4,49
			c-15.2,15.9-53.1,20.4-74.8,6c-6.3-4.1-11.6-11.3-14.7-25.1C-3561.9-1001.9-3559.8-1021.6-3559.8-1029.2z M-3538.4-1007.9
			c0.1-12-1.5-248.7-0.1-266.9c1-13.2,1.9-27.5,9.4-36.8c4.2-5.4,10.7-11.4,23.3-12.1c13.9-0.6,23.7-0.9,30.6,13.5
			c2.3,4.8,1.8,19.3,1.9,31.2c0.3,48.3,0.1,241.1-0.1,247.8c-0.4,15.7-0.4,31-8.9,43.7c-9.4,14.1-36,18.5-49.4,5.9
			C-3539-988.4-3538.4-1001.1-3538.4-1007.9z"/>
	</g>
	<g transform="matrix(0.400474,0,0,0.400474,1564.95,536.005)">
		<path class="st0" d="M-2674.4-980.9c-9.1,2.7-18.6,4.1-28.7,4.1c-55.8,0-101.2-45.4-101.2-101.3c0-55.9,45.4-101.3,101.2-101.3
			s101.2,45.4,101.2,101.3c0,21.5-6.7,41.5-18.1,57.9c-7.1-1.9-14.3-6.4-18.4-9.3c10.4-13.6,16.7-30.7,16.5-49.1
			c-0.4-44.6-36.8-80.9-81.3-80.9c-44.5,0-80.6,36.5-80.9,81.1c-0.4,45,35.7,80.9,79.7,81.5c3.5,0,8.1-0.5,11.4-0.9
			C-2689.7-994.1-2680.8-984.8-2674.4-980.9z"/>
	</g>
	<g transform="matrix(-0.400473,0.000985269,-0.000985269,-0.400473,1935.9,872.926)">
		<path class="st0" d="M3552.2,2024.8c-9.1,2.7-18.6,4.1-28.7,4.1c-55.8,0-101.2-45.4-101.2-101.3c0-55.9,45.4-101.3,101.2-101.3
			c55.8,0,101.2,45.4,101.2,101.3c0,21.5-6.7,41.5-18.1,57.9c-7.1-1.9-14.3-6.4-18.4-9.3c10.4-13.6,16.7-30.7,16.5-49.1
			c-0.4-44.6-36.8-80.9-81.3-80.9c-44.5,0-80.6,36.5-80.9,81.1c-0.4,45,35.7,80.9,79.7,81.5c3.5,0,8.1-0.5,11.4-0.9
			C3536.9,2011.6,3545.7,2021,3552.2,2024.8z"/>
	</g>
	<g transform="matrix(0.42887,0,0,0.401013,1029.71,692.906)">
		<path class="st0" d="M-1428.4-1286.1l-83.7-0.1V-906h20.3v-179.9l48.5-0.3l5.1-20.3l-53.5-0.4V-1265h58.5L-1428.4-1286.1z"/>
	</g>
</g>
</svg>
